<svg xmlns="http://www.w3.org/2000/svg" viewBox="0 0 100 100" fill="currentColor">
  <path d="M47 10 Q50 6 53 10 Q55 14 53 17 Q50 19 47 17 Q45 14 47 10 Z M50 19 L52 24 L58 27 Q65 30 68 35 L72 45 Q75 52 70 55 L65 50 L60 40 Q55 35 52 38 L48 42 Q45 45 42 42 L38 38 Q35 35 40 30 L45 27 L48 24 L50 19 Z M42 42 L38 48 L32 55 Q28 60 25 58 Q22 55 28 50 L35 42 L42 42 Z M70 55 L75 60 L82 67 Q86 72 83 75 L78 78 L72 75 Q68 72 65 75 L60 78 Q57 75 60 72 L65 67 L70 60 L70 55 Z M25 58 L22 65 L18 72 Q15 77 12 75 Q9 72 15 67 L22 58 L25 58 Z"/>
</svg>
