<svg xmlns="http://www.w3.org/2000/svg" viewBox="0 0 200 200" fill="currentColor">
  <!-- Mango del palo -->
  <rect x="95" y="10" width="8" height="140" rx="4"/>
  
  <!-- Empuñadura con textura -->
  <rect x="92" y="15" width="14" height="3" rx="1.5" opacity="0.8"/>
  <rect x="92" y="20" width="14" height="3" rx="1.5" opacity="0.8"/>
  <rect x="92" y="25" width="14" height="3" rx="1.5" opacity="0.8"/>
  <rect x="92" y="30" width="14" height="3" rx="1.5" opacity="0.8"/>
  <rect x="92" y="35" width="14" height="3" rx="1.5" opacity="0.8"/>
  
  <!-- Parte curva del palo -->
  <path d="M99 150 Q85 160 70 170 Q55 180 45 190 Q40 195 42 200 Q45 205 55 200 Q70 190 85 175 Q100 160 103 150" fill="currentColor"/>
  
  <!-- Cabeza/pala del palo más realista -->
  <ellipse cx="48" cy="185" rx="20" ry="8" transform="rotate(-25 48 185)"/>
  
  <!-- Detalles de la pala -->
  <ellipse cx="48" cy="185" rx="16" ry="6" transform="rotate(-25 48 185)" fill="none" stroke="currentColor" stroke-width="1"/>
  
  <!-- Refuerzo en la unión -->
  <ellipse cx="85" cy="158" rx="6" ry="12" transform="rotate(-15 85 158)" opacity="0.6"/>
</svg>
