<svg xmlns="http://www.w3.org/2000/svg" viewBox="0 0 200 200" fill="currentColor">
  <!-- Cabeza -->
  <circle cx="100" cy="25" r="15"/>
  
  <!-- Cuerpo en posición defensiva -->
  <ellipse cx="100" cy="68" rx="16" ry="30" transform="rotate(-5 100 68)"/>
  
  <!-- Brazo izquierdo preparado para interceptar -->
  <ellipse cx="78" cy="58" rx="7" ry="20" transform="rotate(-25 78 58)"/>
  <ellipse cx="68" cy="78" rx="5" ry="16" transform="rotate(-40 68 78)"/>
  
  <!-- Brazo derecho con el palo -->
  <ellipse cx="122" cy="58" rx="7" ry="20" transform="rotate(15 122 58)"/>
  <ellipse cx="135" cy="80" rx="5" ry="16" transform="rotate(25 135 80)"/>
  
  <!-- Palo de hockey en posición defensiva -->
  <rect x="140" y="80" width="4" height="70" transform="rotate(30 142 115)" rx="2"/>
  <ellipse cx="160" cy="135" rx="7" ry="3" transform="rotate(30 160 135)"/>
  
  <!-- Pierna izquierda plantada -->
  <ellipse cx="88" cy="120" rx="9" ry="26"/>
  <ellipse cx="85" cy="165" rx="7" ry="20"/>
  
  <!-- Pierna derecha separada para estabilidad -->
  <ellipse cx="112" cy="122" rx="9" ry="26" transform="rotate(20 112 122)"/>
  <ellipse cx="120" cy="168" rx="7" ry="20" transform="rotate(15 120 168)"/>
  
  <!-- Pies en posición firme -->
  <ellipse cx="82" cy="185" rx="10" ry="5"/>
  <ellipse cx="125" cy="185" rx="10" ry="5" transform="rotate(15 125 185)"/>
  
  <!-- Pelota controlada -->
  <circle cx="170" cy="140" r="3"/>
</svg>
