<svg xmlns="http://www.w3.org/2000/svg" viewBox="0 0 100 100" fill="currentColor">
  <path d="M48 8 Q51 4 54 8 Q56 12 54 15 Q51 17 48 15 Q46 12 48 8 Z M51 17 L53 22 L48 25 Q45 28 42 25 L38 22 Q35 18 40 15 L45 18 L48 20 L51 17 Z M40 15 L35 20 L28 28 Q22 35 18 32 Q15 28 22 22 L30 15 L40 15 Z M53 22 L58 27 L65 35 Q70 42 75 45 L82 50 Q87 55 83 58 L78 55 L70 48 Q65 42 62 45 L58 48 Q55 52 52 48 L48 45 Q45 42 50 38 L53 35 L56 30 L53 22 Z M18 32 L15 40 L12 48 Q10 55 7 52 Q4 48 10 42 L15 32 L18 32 Z M83 58 L88 65 L92 72 Q95 78 92 82 L88 85 L83 82 Q80 78 77 82 L72 85 Q68 82 72 78 L77 72 L83 65 L83 58 Z M7 52 L4 60 L2 68 Q0 75 3 78 L7 82 L12 78 Q15 75 18 78 L22 82 Q25 78 22 75 L18 68 L12 60 L7 52 Z"/>
</svg>
