<svg xmlns="http://www.w3.org/2000/svg" viewBox="0 0 200 200" fill="currentColor">
  <!-- Cabeza -->
  <circle cx="100" cy="25" r="18"/>
  
  <!-- Cuerpo -->
  <ellipse cx="100" cy="65" rx="20" ry="35"/>
  
  <!-- Brazo izquierdo sosteniendo el palo -->
  <ellipse cx="75" cy="55" rx="8" ry="25" transform="rotate(-30 75 55)"/>
  <ellipse cx="60" cy="75" rx="6" ry="20" transform="rotate(-45 60 75)"/>
  
  <!-- Brazo derecho sosteniendo el palo -->
  <ellipse cx="125" cy="55" rx="8" ry="25" transform="rotate(30 125 55)"/>
  <ellipse cx="140" cy="75" rx="6" ry="20" transform="rotate(45 140 75)"/>
  
  <!-- Palo de hockey -->
  <rect x="45" y="75" width="4" height="80" transform="rotate(-15 47 115)" rx="2"/>
  <ellipse cx="40" cy="150" rx="8" ry="4" transform="rotate(-15 40 150)"/>
  
  <!-- Pierna izquierda -->
  <ellipse cx="85" cy="125" rx="10" ry="30"/>
  <ellipse cx="80" cy="170" rx="8" ry="25"/>
  
  <!-- Pierna derecha en movimiento -->
  <ellipse cx="115" cy="125" rx="10" ry="30" transform="rotate(15 115 125)"/>
  <ellipse cx="125" cy="168" rx="8" ry="25" transform="rotate(20 125 168)"/>
  
  <!-- Pies con tacos -->
  <ellipse cx="75" cy="190" rx="12" ry="6"/>
  <ellipse cx="135" cy="185" rx="12" ry="6" transform="rotate(20 135 185)"/>
  
  <!-- Pelota de hockey -->
  <circle cx="25" cy="155" r="4"/>
</svg>
