<svg xmlns="http://www.w3.org/2000/svg" viewBox="0 0 100 100" fill="currentColor">
  <path d="M48 8 Q51 4 54 8 Q56 12 54 15 Q51 17 48 15 Q46 12 48 8 Z M51 17 L53 22 L48 25 Q45 28 42 25 L38 22 Q35 18 40 15 L45 18 L48 20 L51 17 Z M40 15 L35 20 L28 28 Q22 35 18 32 Q15 28 22 22 L30 15 L40 15 Z M53 22 L58 27 L65 35 Q70 42 67 45 L62 48 Q58 52 55 48 L52 45 Q48 42 53 38 L56 35 L58 30 L53 22 Z M18 32 L15 40 L12 48 Q10 55 7 52 Q4 48 10 42 L15 32 L18 32 Z M67 45 L72 50 L78 58 Q83 65 80 68 L75 71 Q70 75 67 71 L64 68 Q60 65 65 60 L70 58 L72 55 L67 45 Z M7 52 L4 60 L2 68 Q0 75 3 78 L7 82 L12 78 Q15 75 18 78 L22 82 Q25 78 22 75 L18 68 L12 60 L7 52 Z M80 68 L85 75 L90 82 Q95 88 92 92 L87 95 L80 92 Q75 88 72 92 L67 95 Q63 92 67 88 L72 82 L80 75 L80 68 Z"/>
</svg>
