<svg xmlns="http://www.w3.org/2000/svg" viewBox="0 0 100 100" fill="currentColor">
  <path d="M45 15 Q50 10 55 15 Q58 18 55 22 Q52 25 48 23 Q45 20 45 15 Z M48 25 Q52 23 55 28 L60 45 Q62 50 58 52 L55 50 L52 35 Q50 32 48 35 L45 48 Q43 52 40 50 Q38 47 42 45 L48 25 Z M35 48 Q40 45 45 50 L50 65 Q52 70 48 72 L45 70 L42 58 Q40 55 38 58 L32 70 Q30 75 25 72 Q22 68 28 65 L35 48 Z M60 48 Q65 45 70 50 L75 65 Q77 70 73 72 L70 70 L67 58 Q65 55 63 58 L57 70 Q55 75 50 72 Q47 68 53 65 L60 48 Z M25 70 Q30 68 35 73 L40 85 Q42 90 38 92 L35 90 L32 82 Q30 80 28 82 L22 90 Q20 95 15 92 Q12 88 18 85 L25 70 Z M73 70 Q78 68 83 73 L88 85 Q90 90 86 92 L83 90 L80 82 Q78 80 76 82 L70 90 Q68 95 63 92 Q60 88 66 85 L73 70 Z"/>
</svg>
