<svg xmlns="http://www.w3.org/2000/svg" viewBox="0 0 100 100" fill="currentColor">
  <path d="M47 10 Q50 6 53 10 Q55 14 53 17 Q50 19 47 17 Q45 14 47 10 Z M50 19 L52 24 L48 30 Q45 35 42 32 L38 28 Q35 24 40 21 L45 24 L48 26 L50 19 Z M40 21 L35 26 L28 33 Q20 40 15 37 Q10 33 18 28 L28 21 L40 21 Z M52 24 L57 29 L65 36 Q72 43 78 48 L85 55 Q92 62 88 66 L83 63 L75 55 Q68 48 65 52 L60 58 Q55 62 50 58 L45 52 Q40 48 47 43 L55 36 L57 29 L52 24 Z M15 37 L12 45 L8 53 Q5 60 2 57 Q-1 53 5 48 L12 37 L15 37 Z M88 66 L93 73 L98 80 Q100 87 97 90 L93 93 L88 90 Q85 87 82 90 L77 93 Q73 90 77 87 L82 80 L88 73 L88 66 Z"/>
</svg>
