<svg xmlns="http://www.w3.org/2000/svg" viewBox="0 0 300 200" fill="currentColor">
  <!-- Campo principal -->
  <rect x="10" y="20" width="280" height="160" rx="8" fill="none" stroke="currentColor" stroke-width="3"/>
  
  <!-- Línea central -->
  <line x1="150" y1="20" x2="150" y2="180" stroke="currentColor" stroke-width="2"/>
  
  <!-- Círculo central -->
  <circle cx="150" cy="100" r="18" fill="none" stroke="currentColor" stroke-width="2"/>
  
  <!-- Áreas de gol (shooting circles) -->
  <path d="M10 60 Q50 30 80 60 Q80 80 80 100 Q80 120 80 140 Q50 170 10 140" fill="none" stroke="currentColor" stroke-width="2"/>
  <path d="M290 60 Q250 30 220 60 Q220 80 220 100 Q220 120 220 140 Q250 170 290 140" fill="none" stroke="currentColor" stroke-width="2"/>
  
  <!-- Áreas pequeñas de portería -->
  <rect x="10" y="80" width="25" height="40" fill="none" stroke="currentColor" stroke-width="2"/>
  <rect x="265" y="80" width="25" height="40" fill="none" stroke="currentColor" stroke-width="2"/>
  
  <!-- Porterías -->
  <rect x="5" y="88" width="8" height="24" rx="2" stroke="currentColor" stroke-width="2" fill="none"/>
  <rect x="287" y="88" width="8" height="24" rx="2" stroke="currentColor" stroke-width="2" fill="none"/>
  
  <!-- Líneas de 25 yardas -->
  <line x1="85" y1="20" x2="85" y2="180" stroke="currentColor" stroke-width="1" stroke-dasharray="4,4" opacity="0.7"/>
  <line x1="215" y1="20" x2="215" y2="180" stroke="currentColor" stroke-width="1" stroke-dasharray="4,4" opacity="0.7"/>
  
  <!-- Líneas laterales (sidelines) adicionales -->
  <line x1="10" y1="65" x2="85" y2="65" stroke="currentColor" stroke-width="1" opacity="0.5"/>
  <line x1="10" y1="135" x2="85" y2="135" stroke="currentColor" stroke-width="1" opacity="0.5"/>
  <line x1="215" y1="65" x2="290" y2="65" stroke="currentColor" stroke-width="1" opacity="0.5"/>
  <line x1="215" y1="135" x2="290" y2="135" stroke="currentColor" stroke-width="1" opacity="0.5"/>
  
  <!-- Arcos de las esquinas -->
  <path d="M20 25 Q15 25 15 20 Q15 25 20 25" fill="none" stroke="currentColor" stroke-width="1.5"/>
  <path d="M280 25 Q285 25 285 20 Q285 25 280 25" fill="none" stroke="currentColor" stroke-width="1.5"/>
  <path d="M20 175 Q15 175 15 180 Q15 175 20 175" fill="none" stroke="currentColor" stroke-width="1.5"/>
  <path d="M280 175 Q285 175 285 180 Q285 175 280 175" fill="none" stroke="currentColor" stroke-width="1.5"/>
  
  <!-- Puntos de penal (penalty spots) -->
  <circle cx="50" cy="100" r="2"/>
  <circle cx="250" cy="100" r="2"/>
  
  <!-- Textura del campo -->
  <rect x="10" y="20" width="280" height="160" rx="8" fill="currentColor" opacity="0.05"/>
</svg>
