<svg xmlns="http://www.w3.org/2000/svg" viewBox="0 0 200 200" fill="currentColor">
  <!-- Cabeza con casco -->
  <circle cx="100" cy="28" r="16"/>
  <rect x="92" y="20" width="16" height="8" rx="4"/>
  
  <!-- Cuerpo más robusto del portero -->
  <ellipse cx="100" cy="75" rx="22" ry="35"/>
  
  <!-- Protecciones del pecho -->
  <ellipse cx="100" cy="65" rx="18" ry="25" fill="none" stroke="currentColor" stroke-width="2"/>
  
  <!-- Brazo izquierdo con guante protector -->
  <ellipse cx="75" cy="65" rx="9" ry="22"/>
  <ellipse cx="60" cy="85" rx="12" ry="8"/>
  
  <!-- Brazo derecho con palo de portero -->
  <ellipse cx="125" cy="65" rx="9" ry="22"/>
  <ellipse cx="140" cy="85" rx="7" ry="15"/>
  
  <!-- Palo de portero más grande -->
  <rect x="135" y="85" width="6" height="90" rx="3"/>
  <ellipse cx="138" cy="170" rx="12" ry="6"/>
  
  <!-- Pierna izquierda con protección -->
  <ellipse cx="85" cy="135" rx="12" ry="32"/>
  <rect x="78" y="115" width="14" height="40" rx="7" fill="none" stroke="currentColor" stroke-width="2"/>
  <ellipse cx="80" cy="180" rx="9" ry="20"/>
  
  <!-- Pierna derecha con protección -->
  <ellipse cx="115" cy="135" rx="12" ry="32"/>
  <rect x="108" y="115" width="14" height="40" rx="7" fill="none" stroke="currentColor" stroke-width="2"/>
  <ellipse cx="120" cy="180" rx="9" ry="20"/>
  
  <!-- Pies con protectores -->
  <ellipse cx="75" cy="195" rx="14" ry="7"/>
  <ellipse cx="125" cy="195" rx="14" ry="7"/>
  
  <!-- Protección adicional -->
  <rect x="85" y="50" width="30" height="15" rx="7" fill="none" stroke="currentColor" stroke-width="1.5"/>
</svg>
