<svg xmlns="http://www.w3.org/2000/svg" viewBox="0 0 100 100" fill="currentColor">
  <path d="M48 12 Q50 8 52 12 Q54 16 52 18 Q50 20 48 18 Q46 16 48 12 Z M50 20 L52 25 L58 28 Q62 30 65 35 L70 45 Q73 52 68 55 L63 52 L58 42 Q55 35 52 38 L48 42 Q45 45 42 42 L38 38 Q35 35 40 30 L45 28 L48 25 L50 20 Z M68 55 L73 60 L80 67 Q85 72 82 75 L77 78 L70 75 Q65 72 62 75 L57 78 Q54 75 57 72 L62 67 L68 60 L68 55 Z M42 42 L38 48 L32 55 Q27 60 24 58 Q21 55 27 50 L35 42 L42 42 Z M24 58 L21 65 L18 72 Q15 77 12 75 Q9 72 15 67 L21 58 L24 58 Z M15 25 L20 30 L25 38 Q28 45 23 48 L18 45 L13 35 Q10 28 15 25 Z"/>
</svg>
