<svg xmlns="http://www.w3.org/2000/svg" viewBox="0 0 100 100" fill="currentColor">
  <path d="M48 12 Q50 8 52 12 Q54 16 52 18 Q50 20 48 18 Q46 16 48 12 Z M50 20 L52 25 L58 28 Q62 30 60 35 L55 40 L50 45 Q48 50 45 48 L40 45 L35 40 Q33 35 37 30 L42 28 L48 25 L50 20 Z M45 50 L48 55 L52 60 Q55 65 52 68 L48 70 L45 65 Q43 60 40 62 L35 68 Q32 72 28 70 Q25 67 30 62 L35 55 L40 50 Q43 48 45 50 Z M52 68 L55 72 L60 78 Q63 82 60 85 L55 88 L50 85 Q48 82 45 85 L40 88 Q37 85 40 82 L45 78 L50 72 L52 68 Z M28 70 L32 75 L38 82 Q41 87 38 90 L33 93 L28 90 Q25 87 22 90 L17 93 Q14 90 17 87 L22 82 L28 75 L28 70 Z"/>
</svg>
