<svg xmlns="http://www.w3.org/2000/svg" viewBox="0 0 200 200" fill="currentColor">
  <!-- Cabeza -->
  <circle cx="100" cy="28" r="16"/>
  
  <!-- Cuerpo inclinado hacia adelante -->
  <ellipse cx="100" cy="70" rx="18" ry="32" transform="rotate(10 100 70)"/>
  
  <!-- Brazo izquierdo extendido -->
  <ellipse cx="80" cy="60" rx="8" ry="22" transform="rotate(-45 80 60)"/>
  <ellipse cx="65" cy="80" rx="6" ry="18" transform="rotate(-60 65 80)"/>
  
  <!-- Brazo derecho en el palo -->
  <ellipse cx="120" cy="65" rx="8" ry="22" transform="rotate(20 120 65)"/>
  <ellipse cx="135" cy="85" rx="6" ry="18" transform="rotate(35 135 85)"/>
  
  <!-- Palo de hockey en posición de dribling -->
  <rect x="130" y="85" width="4" height="75" transform="rotate(25 132 122)" rx="2"/>
  <ellipse cx="155" cy="145" rx="8" ry="4" transform="rotate(25 155 145)"/>
  
  <!-- Pierna izquierda flexionada -->
  <ellipse cx="88" cy="120" rx="10" ry="28" transform="rotate(-10 88 120)"/>
  <ellipse cx="82" cy="165" rx="8" ry="22" transform="rotate(-15 82 165)"/>
  
  <!-- Pierna derecha extendida -->
  <ellipse cx="112" cy="125" rx="10" ry="28" transform="rotate(25 112 125)"/>
  <ellipse cx="125" cy="168" rx="8" ry="22" transform="rotate(30 125 168)"/>
  
  <!-- Pies -->
  <ellipse cx="75" cy="185" rx="11" ry="6" transform="rotate(-15 75 185)"/>
  <ellipse cx="140" cy="182" rx="11" ry="6" transform="rotate(30 140 182)"/>
  
  <!-- Pelota cerca del palo -->
  <circle cx="165" cy="148" r="4"/>
</svg>
