<svg xmlns="http://www.w3.org/2000/svg" viewBox="0 0 100 100" fill="currentColor">
  <path d="M48 12 Q50 8 52 12 Q54 16 52 18 Q50 20 48 18 Q46 16 48 12 Z M50 20 L52 25 L58 28 Q65 32 70 38 L75 48 Q78 55 73 58 L68 55 L62 45 Q58 38 55 42 L50 48 Q47 52 44 48 L40 42 Q37 38 42 32 L48 28 L50 25 L50 20 Z M73 58 L78 65 L85 72 Q90 78 87 82 L82 85 L75 82 Q70 78 67 82 L62 85 Q58 82 62 78 L67 72 L73 65 L73 58 Z M44 48 L40 55 L35 62 Q30 68 25 65 Q22 62 28 58 L35 48 L44 48 Z M25 65 L20 72 L15 78 Q10 85 7 82 Q4 78 10 72 L18 65 L25 65 Z M20 25 Q25 22 30 27 L35 38 Q37 45 32 48 L27 45 L22 35 Q20 30 20 25 Z"/>
</svg>
